<?xml version="1.0"?>
<svg xmlns="http://www.w3.org/2000/svg" viewBox="0 0 50 50">
    <path d="M 25 2 C 12.297 2 2 12.297 2 25 C 2 37.703 12.297 48 25 48 C 37.703 48 48 37.703 48 25 C 48 12.297 37.703 2 25 2 z M 25 4 C 36.598 4 46 13.402 46 25 C 46 36.598 36.598 46 25 46 C 13.402 46 4 36.598 4 25 C 4 13.402 13.402 4 25 4 z M 24 6.1035156 C 22.756 6.3445156 21.554016 7.0319688 20.416016 8.1679688 C 19.133016 9.4499688 18.046594 11.204672 17.183594 13.263672 C 19.318594 13.683672 21.628 13.921563 24 13.976562 L 24 6.1035156 z M 26 6.1035156 L 26 13.976562 C 28.374 13.921563 30.681406 13.681719 32.816406 13.261719 C 31.944406 11.180719 30.843016 9.412 29.541016 8.125 C 28.416016 7.014 27.228 6.3425156 26 6.1035156 z M 18.707031 7.0820312 C 16.002031 8.0370312 13.578844 9.590125 11.589844 11.578125 C 12.697844 12.055125 13.910609 12.475359 15.224609 12.818359 C 16.144609 10.540359 17.317031 8.5700313 18.707031 7.0820312 z M 31.287109 7.0820312 C 32.680109 8.5710312 33.853391 10.539359 34.775391 12.818359 C 36.089391 12.475359 37.304109 12.057078 38.412109 11.580078 C 36.421109 9.5900781 33.995109 8.0370312 31.287109 7.0820312 z M 39.808594 13.138672 C 38.500594 13.748672 37.045078 14.279125 35.455078 14.703125 C 35.790078 15.752125 36.061969 16.860047 36.292969 17.998047 L 34.263672 17.998047 C 34.052672 17.017047 33.811531 16.063156 33.519531 15.160156 C 31.167531 15.644156 28.616 15.916609 26 15.974609 L 26 18 L 24 18 L 24 15.976562 C 21.386 15.918563 18.835422 15.642203 16.482422 15.158203 C 16.190422 16.062203 15.949281 17.019953 15.738281 18.001953 L 13.707031 18.001953 C 13.939031 16.862953 14.211875 15.753125 14.546875 14.703125 C 12.955875 14.279125 11.496453 13.751578 10.189453 13.142578 C 8.8004531 14.873578 7.7043281 16.85 6.9863281 19 C 6.4563281 20.584 6.1369688 22.262 6.0429688 24 L 9 24 L 9 26 L 6.0429688 26 C 6.1369688 27.738 6.4563281 29.415953 6.9863281 31.001953 C 7.7043281 33.152953 8.8024062 35.129328 10.191406 36.861328 C 11.499406 36.251328 12.954922 35.720875 14.544922 35.296875 C 14.209922 34.247875 13.938031 33.139953 13.707031 32.001953 L 15.736328 32.001953 C 15.947328 32.982953 16.188469 33.936844 16.480469 34.839844 C 18.832469 34.355844 21.384 34.083391 24 34.025391 L 24 32 L 26 32 L 26 34.023438 C 28.614 34.081437 31.164578 34.357797 33.517578 34.841797 C 33.809578 33.937797 34.050719 32.980047 34.261719 31.998047 L 36.292969 31.998047 C 36.060969 33.137047 35.788125 34.246875 35.453125 35.296875 C 37.044125 35.720875 38.503547 36.248422 39.810547 36.857422 C 41.199547 35.126422 42.295672 33.15 43.013672 31 C 43.543672 29.414 43.863031 27.737047 43.957031 25.998047 L 41 25.998047 L 41 24 L 43.957031 24 C 43.863031 22.262 43.543672 20.584047 43.013672 18.998047 C 42.295672 16.847047 41.197594 14.870672 39.808594 13.138672 z M 35.263672 20 C 35.836672 20 36.3515 20.075609 36.8125 20.224609 C 37.2735 20.374609 37.666234 20.580703 37.990234 20.845703 C 38.315234 21.110703 38.564281 21.426922 38.738281 21.794922 C 38.913281 22.160922 39 22.567813 39 23.007812 L 36.605469 23.007812 C 36.605469 22.802813 36.578344 22.613406 36.527344 22.441406 C 36.475344 22.269406 36.39325 22.124953 36.28125 22.001953 C 36.16825 21.879953 36.025563 21.782844 35.851562 21.714844 C 35.677563 21.645844 35.467656 21.611328 35.222656 21.611328 C 34.993656 21.611328 34.797859 21.640219 34.630859 21.699219 C 34.464859 21.756219 34.325797 21.835547 34.216797 21.935547 C 34.107797 22.035547 34.025703 22.156922 33.970703 22.294922 C 33.915703 22.433922 33.888672 22.580328 33.888672 22.736328 C 33.890672 22.896328 33.933578 23.039922 34.017578 23.169922 C 34.101578 23.299922 34.222953 23.41925 34.376953 23.53125 C 34.532953 23.64225 34.720406 23.747703 34.941406 23.845703 C 35.161406 23.944703 35.404875 24.039813 35.671875 24.132812 C 36.227875 24.297812 36.712953 24.479688 37.126953 24.679688 C 37.540953 24.880688 37.886063 25.107328 38.164062 25.361328 C 38.442062 25.615328 38.650109 25.901703 38.787109 26.220703 C 38.923109 26.538703 38.990234 26.899781 38.990234 27.300781 C 38.990234 27.728781 38.905375 28.108406 38.734375 28.441406 C 38.562375 28.776406 38.317047 29.058109 37.998047 29.287109 C 37.679047 29.517109 37.294797 29.693406 36.841797 29.816406 C 36.390797 29.939406 35.8795 30 35.3125 30 C 34.8005 30 34.295734 29.936594 33.802734 29.808594 C 33.309734 29.681594 32.869422 29.487609 32.482422 29.224609 C 32.095422 28.961609 31.783875 28.629516 31.546875 28.228516 C 31.309875 27.827516 31.191406 27.350828 31.191406 26.798828 L 33.603516 26.798828 C 33.603516 27.092828 33.640938 27.342875 33.710938 27.546875 C 33.780938 27.750875 33.889203 27.917922 34.033203 28.044922 C 34.177203 28.172922 34.356359 28.261359 34.568359 28.318359 C 34.780359 28.374359 35.0295 28.402344 35.3125 28.402344 C 35.5415 28.402344 35.735484 28.374359 35.896484 28.318359 C 36.057484 28.261359 36.187062 28.186797 36.289062 28.091797 C 36.390062 27.995797 36.463813 27.880094 36.507812 27.746094 C 36.551812 27.612094 36.574219 27.466547 36.574219 27.310547 C 36.574219 27.140547 36.555578 26.990422 36.517578 26.857422 C 36.479578 26.724422 36.398391 26.597516 36.275391 26.478516 C 36.153391 26.360516 35.979906 26.245766 35.753906 26.134766 C 35.526906 26.023766 35.225609 25.90625 34.849609 25.78125 C 34.403609 25.64325 33.975313 25.484641 33.570312 25.306641 C 33.164313 25.128641 32.808 24.917781 32.5 24.675781 C 32.192 24.432781 31.945672 24.151031 31.763672 23.832031 C 31.580672 23.514031 31.490234 23.144703 31.490234 22.720703 C 31.490234 22.316703 31.584531 21.943422 31.769531 21.607422 C 31.954531 21.270422 32.213828 20.984047 32.548828 20.748047 C 32.884828 20.512047 33.282187 20.328266 33.742188 20.197266 C 34.201188 20.065266 34.708672 20 35.263672 20 z M 11 20.134766 L 14.146484 20.134766 C 14.832484 20.134766 15.460437 20.226156 16.023438 20.410156 C 16.588438 20.595156 17.069703 20.863891 17.470703 21.212891 C 17.870703 21.562891 18.181344 21.992906 18.402344 22.503906 C 18.622344 23.013906 18.732422 23.595 18.732422 24.25 L 18.732422 25.761719 C 18.732422 26.416719 18.62425 26.996859 18.40625 27.505859 C 18.18825 28.013859 17.877609 28.442016 17.474609 28.791016 C 17.071609 29.141016 16.586531 29.408844 16.019531 29.589844 C 15.452531 29.772844 14.820047 29.863281 14.123047 29.863281 L 11 29.863281 L 11 20.134766 z M 21 20.134766 L 23.310547 20.134766 L 26.697266 26.523438 L 26.697266 20.134766 L 29 20.134766 L 29 29.863281 L 28.998047 29.863281 L 26.689453 29.863281 L 23.310547 23.482422 L 23.310547 29.863281 L 21 29.863281 L 21 20.134766 z M 13.404297 21.771484 L 13.404297 28.232422 L 14.125 28.232422 C 14.55 28.232422 14.9045 28.186703 15.1875 28.095703 C 15.4705 28.004703 15.696234 27.858203 15.865234 27.658203 C 16.034234 27.458203 16.154609 27.203625 16.224609 26.890625 C 16.294609 26.579625 16.330078 26.202719 16.330078 25.761719 L 16.330078 24.236328 C 16.330078 23.791328 16.294609 23.413563 16.224609 23.101562 C 16.153609 22.790562 16.033234 22.535844 15.865234 22.339844 C 15.696234 22.143844 15.471406 22.001203 15.191406 21.908203 C 14.911406 21.817203 14.563437 21.771484 14.148438 21.771484 L 13.404297 21.771484 z M 24 36.023438 C 23.071265 36.044954 22.157986 36.103796 21.255859 36.181641 C 21.00478 36.203328 20.750297 36.218121 20.501953 36.244141 C 19.361328 36.363516 18.251094 36.528281 17.183594 36.738281 C 18.055594 38.819281 19.156984 40.588 20.458984 41.875 C 21.583984 42.986 22.772 43.657484 24 43.896484 L 24 43.894531 L 24 36.023438 z M 26 36.023438 L 26 43.894531 C 27.244 43.653531 28.445984 42.966078 29.583984 41.830078 C 30.866984 40.549078 31.953406 38.795328 32.816406 36.736328 C 30.681406 36.316328 28.372 36.078438 26 36.023438 z M 15.224609 37.181641 C 15.213745 37.184477 15.20421 37.18856 15.193359 37.191406 C 15.193359 37.191406 15.193359 37.189453 15.193359 37.189453 C 13.892359 37.530453 12.684937 37.943016 11.585938 38.416016 C 11.832812 38.662891 12.085713 38.903562 12.345703 39.136719 C 12.348448 39.13918 12.350769 39.142071 12.353516 39.144531 C 12.610906 39.375091 12.874872 39.597941 13.144531 39.814453 C 13.348725 39.978418 13.558599 40.133458 13.769531 40.289062 C 13.843177 40.343393 13.913832 40.401788 13.988281 40.455078 C 14.229335 40.627608 14.477342 40.791753 14.726562 40.953125 C 14.768728 40.980426 14.811122 41.012087 14.853516 41.039062 C 15.082325 41.18462 15.31745 41.321133 15.552734 41.457031 C 15.62353 41.497919 15.692305 41.542035 15.763672 41.582031 C 16.289589 41.876799 16.833456 42.142142 17.388672 42.386719 C 17.484783 42.429045 17.578841 42.474858 17.675781 42.515625 C 18.016672 42.659032 18.36221 42.794298 18.712891 42.917969 C 17.319891 41.428969 16.146609 39.460641 15.224609 37.181641 z M 34.775391 37.181641 C 33.855391 39.459641 32.682969 41.429969 31.292969 42.917969 C 33.997969 41.962969 36.421156 40.409875 38.410156 38.421875 C 37.302156 37.944875 36.089391 37.524641 34.775391 37.181641 z"/>
</svg>
